<svg xmlns="http://www.w3.org/2000/svg" width="13" height="21" viewBox="0 0 13 21" fill="none">
  <path d="M1.01382 0.459762C0.731943 0.741727 0.573591 1.1241 0.573591 1.5228C0.573591 1.9215 0.731943 2.30387 1.01382 2.58584L8.45659 10.0286L1.01382 17.4714C0.739931 17.755 0.588378 18.1348 0.591804 18.529C0.595229 18.9232 0.75336 19.3004 1.03214 19.5791C1.31092 19.8579 1.68804 20.016 2.08227 20.0195C2.47651 20.0229 2.85632 19.8713 3.1399 19.5975L11.6457 11.0916C11.9276 10.8097 12.0859 10.4273 12.0859 10.0286C12.0859 9.62991 11.9276 9.24754 11.6457 8.96557L3.1399 0.459762C2.85793 0.177882 2.47556 0.0195313 2.07686 0.0195312C1.67816 0.0195312 1.29579 0.177882 1.01382 0.459762Z" fill="black"/>
</svg>