<svg xmlns="http://www.w3.org/2000/svg" width="135" height="33" viewBox="0 0 135 33" fill="none">
    <path d="M4.43539 16.5024C5.75573 16.0604 7.10939 15.725 8.48336 15.4994C10.2526 15.2347 11.9697 15.4473 12.8964 16.0812C14.2725 17.0119 14.0478 18.7811 14.0478 18.7811H10.0801C6.87059 18.7811 4.4929 19.3682 2.947 20.5423C2.19691 21.1143 1.5954 21.8583 1.19321 22.7115C0.79103 23.5648 0.599975 24.5022 0.636167 25.4448C0.636167 26.7246 0.965139 28.3374 1.61907 29.3403C2.31805 30.3875 3.30428 31.2107 4.45947 31.7113C5.85008 32.3165 7.35643 32.6096 8.87251 32.5699C12.8844 32.5699 14.1842 30.3794 14.1842 30.3794V32.2449H19.865V19.7119C19.865 16.4422 19.1308 13.9549 17.3937 12.3742C15.5884 10.7293 13.2334 9.79458 9.5465 9.94302C7.02857 10.0723 4.54494 10.5836 2.18073 11.4595L4.43539 16.5024ZM14.0638 25.0477C14.0638 25.0477 13.763 27.6955 10.4532 27.6955C9.5304 27.7446 8.61325 27.5243 7.81338 27.0616C7.51428 26.8833 7.26767 26.6291 7.09856 26.3247C6.92946 26.0203 6.84389 25.6766 6.85053 25.3285C6.85053 23.8093 8.1584 23.0484 10.7741 23.0457H14.0558L14.0638 25.0477Z" fill="#4A4697"/>
    <path d="M40.1124 21.9706C39.375 20.9998 38.3817 20.2538 37.244 19.8162C36.1847 19.4111 35.1023 19.0694 34.0024 18.7932C33.0921 18.5759 32.2043 18.2737 31.3505 17.8905C30.4358 17.4572 30.4358 16.9878 30.4358 16.8354C30.4305 16.6397 30.4776 16.4462 30.5721 16.2749C30.6666 16.1035 30.8052 15.9604 30.9734 15.8605C31.4412 15.5758 31.9829 15.4361 32.53 15.4593C33.1786 15.4258 33.8215 15.5956 34.3688 15.9452C34.9162 16.2948 35.3407 16.8066 35.5831 17.4091L35.7395 17.7421L41.0111 14.8696L40.8346 14.5607C40.0265 13.112 38.8266 11.9204 37.3723 11.1225C35.8874 10.3147 34.2204 9.90036 32.53 9.91895C30.4017 9.8509 28.3135 10.5088 26.6085 11.7845C25.8195 12.3912 25.1871 13.1779 24.7642 14.079C24.3412 14.98 24.14 15.9691 24.1773 16.9638C24.1357 18.2857 24.5619 19.58 25.3809 20.6186C26.1368 21.5556 27.1222 22.2811 28.2414 22.7248C29.2984 23.1435 30.3795 23.4985 31.4789 23.7879C32.3918 24.0155 33.2821 24.3257 34.1388 24.7147C35.0535 25.148 35.0535 25.6133 35.0535 25.7658C35.0535 26.1309 35.0535 27.2301 32.4939 27.2301C30.488 27.2301 29.2844 26.4277 28.6987 24.7307L28.5623 24.3295L23.1904 27.3344L23.3268 27.6273C24.9556 31.0855 28.0368 32.8427 32.4859 32.8427C34.9652 32.8427 37.0674 32.2329 38.7364 31.0293C40.4053 29.8258 41.2999 28.0285 41.2999 25.7537C41.3429 24.3947 40.9243 23.0613 40.1124 21.9706Z" fill="#4A4697"/>
    <path d="M59.0002 16.4262V10.5047H44.4492V16.4262H48.112V24.8511C48.112 27.8439 48.9144 29.9662 50.5513 31.1537C51.7307 32.0202 53.4679 32.4495 55.8188 32.4495C56.7788 32.4435 57.7378 32.3846 58.6913 32.273L59.0002 32.2369V26.6203L58.6351 26.6404C57.7787 26.6897 56.92 26.6897 56.0635 26.6404C55.5616 26.6455 55.0731 26.4784 54.6795 26.167C54.5179 25.9851 54.3957 25.7719 54.3204 25.5406C54.2452 25.3094 54.2185 25.065 54.2422 24.823V16.3981L59.0002 16.4262Z" fill="#4A4697"/>
    <path d="M76.0592 10.0834C74.6332 10.0687 73.229 10.4342 71.9912 11.1425C71.1843 11.5986 70.4969 12.2392 69.9853 13.0121V10.5047H63.8672V32.2609H69.9973V21.8301C69.9973 19.9165 70.587 18.5926 71.8026 17.7822C73.0428 16.9629 74.5388 16.6235 76.0111 16.8273L76.4123 16.8755V10.0834H76.0592Z" fill="#4A4697"/>
    <path d="M51.3656 8.31015C50.8287 8.31709 50.2961 8.21387 49.8006 8.00686C49.3052 7.79985 48.8575 7.49345 48.4851 7.10659C48.0985 6.73318 47.7923 6.28469 47.5854 5.78865C47.3784 5.29262 47.275 4.75951 47.2815 4.22207C47.2762 3.68182 47.3801 3.14608 47.5869 2.64696C47.7937 2.14785 48.0992 1.69564 48.4851 1.31748C48.851 0.918168 49.2962 0.599541 49.7921 0.381948C50.2881 0.164354 50.824 0.0525753 51.3656 0.0537485C51.9142 0.0472046 52.4582 0.154734 52.963 0.369516C53.4679 0.584298 53.9226 0.901647 54.2983 1.30144C54.6841 1.6796 54.9896 2.1318 55.1964 2.63091C55.4033 3.13003 55.5071 3.66578 55.5018 4.20602C55.5086 4.7435 55.4053 5.27667 55.1983 5.77274C54.9914 6.26881 54.6851 6.71728 54.2983 7.09054C53.9182 7.48274 53.4621 7.79321 52.9578 8.00292C52.4535 8.21264 51.9117 8.31718 51.3656 8.31015Z" fill="#62BC9E"/>
    <path d="M90.1008 32.5739C87.6397 32.5707 85.2802 31.5916 83.54 29.8513C81.7997 28.111 80.8206 25.7516 80.8174 23.2905V10.5047H87.0959V23.2905C87.0959 24.0885 87.4129 24.8538 87.9772 25.4181C88.5415 25.9823 89.3068 26.2993 90.1048 26.2993C90.9028 26.2993 91.6682 25.9823 92.2324 25.4181C92.7967 24.8538 93.1137 24.0885 93.1137 23.2905V10.5047H99.3923V23.2905C99.3901 25.7533 98.4103 28.1146 96.668 29.8553C94.9258 31.5961 92.5637 32.5739 90.1008 32.5739Z" fill="#4A4697"/>
    <path d="M125.281 10.1958C123.015 10.1962 120.829 11.0301 119.138 12.5387C117.803 11.3503 116.152 10.5736 114.385 10.3025C112.618 10.0313 110.811 10.2773 109.18 11.0106C107.55 11.7439 106.167 12.9332 105.197 14.4352C104.228 15.9372 103.714 17.6875 103.717 19.4752V32.261H109.991V19.4752C109.991 18.6772 110.308 17.9119 110.873 17.3476C111.437 16.7833 112.202 16.4663 113 16.4663C113.798 16.4663 114.564 16.7833 115.128 17.3476C115.692 17.9119 116.009 18.6772 116.009 19.4752V32.261H122.276V19.4752C122.276 18.6772 122.593 17.9119 123.157 17.3476C123.721 16.7833 124.487 16.4663 125.285 16.4663C126.083 16.4663 126.848 16.7833 127.412 17.3476C127.976 17.9119 128.293 18.6772 128.293 19.4752V32.261H134.568V19.4752C134.566 17.0134 133.586 14.6532 131.845 12.9132C130.103 11.1732 127.742 10.1958 125.281 10.1958Z" fill="#4A4697"/>
</svg>