<svg width="135" height="33" viewBox="0 0 135 33" fill="none" xmlns="http://www.w3.org/2000/svg">
<g id="Main Logo">
<path id="Vector" d="M4.43478 16.5024C5.75512 16.0604 7.10878 15.725 8.48275 15.4994C10.252 15.2347 11.969 15.4473 12.8958 16.0812C14.2719 17.0119 14.0472 18.7811 14.0472 18.7811H10.0795C6.86998 18.7811 4.49229 19.3682 2.94639 20.5423C2.1963 21.1143 1.59479 21.8583 1.1926 22.7115C0.79042 23.5648 0.599364 24.5022 0.635557 25.4448C0.635557 26.7246 0.964529 28.3374 1.61846 29.3403C2.31744 30.3875 3.30367 31.2107 4.45886 31.7113C5.84947 32.3165 7.35582 32.6096 8.8719 32.5699C12.8838 32.5699 14.1836 30.3794 14.1836 30.3794V32.2449H19.8644V19.7119C19.8644 16.4422 19.1302 13.9549 17.3931 12.3742C15.5877 10.7293 13.2328 9.79458 9.54589 9.94302C7.02796 10.0723 4.54433 10.5836 2.18012 11.4595L4.43478 16.5024ZM14.0632 25.0477C14.0632 25.0477 13.7623 27.6955 10.4526 27.6955C9.52979 27.7446 8.61264 27.5243 7.81277 27.0616C7.51367 26.8833 7.26706 26.6291 7.09795 26.3247C6.92885 26.0203 6.84328 25.6766 6.84992 25.3285C6.84992 23.8093 8.15779 23.0484 10.7735 23.0457H14.0552L14.0632 25.0477Z" fill="white"/>
<path id="Vector_2" d="M40.1122 21.9706C39.3748 20.9998 38.3815 20.2538 37.2437 19.8162C36.1845 19.4111 35.102 19.0694 34.0021 18.7932C33.0919 18.5759 32.2041 18.2737 31.3503 17.8905C30.4356 17.4572 30.4356 16.9878 30.4356 16.8354C30.4303 16.6397 30.4773 16.4462 30.5719 16.2749C30.6664 16.1035 30.8049 15.9604 30.9732 15.8605C31.4409 15.5758 31.9827 15.4361 32.5298 15.4593C33.1784 15.4258 33.8212 15.5956 34.3686 15.9452C34.9159 16.2948 35.3404 16.8066 35.5828 17.4091L35.7393 17.7421L41.0108 14.8696L40.8343 14.5607C40.0263 13.112 38.8263 11.9204 37.3721 11.1225C35.8871 10.3147 34.2201 9.90036 32.5298 9.91895C30.4015 9.8509 28.3133 10.5088 26.6083 11.7845C25.8193 12.3912 25.1869 13.1779 24.7639 14.079C24.341 14.98 24.1398 15.9691 24.1771 16.9638C24.1354 18.2857 24.5617 19.58 25.3807 20.6186C26.1366 21.5556 27.122 22.2811 28.2411 22.7248C29.2981 23.1435 30.3792 23.4985 31.4787 23.7879C32.3916 24.0155 33.2819 24.3257 34.1385 24.7147C35.0532 25.148 35.0532 25.6133 35.0532 25.7658C35.0532 26.1309 35.0532 27.2301 32.4937 27.2301C30.4878 27.2301 29.2842 26.4277 28.6985 24.7307L28.5621 24.3295L23.1902 27.3344L23.3266 27.6273C24.9554 31.0855 28.0365 32.8427 32.4857 32.8427C34.965 32.8427 37.0672 32.2329 38.7361 31.0293C40.4051 29.8258 41.2997 28.0285 41.2997 25.7537C41.3426 24.3947 40.9241 23.0613 40.1122 21.9706Z" fill="white"/>
<path id="Vector_3" d="M59 16.4262V10.5047H44.449V16.4262H48.1119V24.8511C48.1119 27.8439 48.9142 29.9662 50.5511 31.1537C51.7306 32.0202 53.4677 32.4495 55.8186 32.4495C56.7786 32.4435 57.7376 32.3846 58.6911 32.273L59 32.2369V26.6203L58.635 26.6404C57.7785 26.6897 56.9198 26.6897 56.0634 26.6404C55.5614 26.6455 55.0729 26.4784 54.6793 26.167C54.5177 25.9851 54.3955 25.7719 54.3202 25.5406C54.245 25.3094 54.2183 25.065 54.242 24.823V16.3981L59 16.4262Z" fill="white"/>
<path id="Vector_4" d="M76.0584 10.0834C74.6324 10.0687 73.2282 10.4342 71.9904 11.1425C71.1835 11.5986 70.4961 12.2392 69.9845 13.0121V10.5047H63.8664V32.2609H69.9965V21.8301C69.9965 19.9165 70.5863 18.5926 71.8018 17.7822C73.042 16.9629 74.538 16.6235 76.0103 16.8273L76.4115 16.8755V10.0834H76.0584Z" fill="white"/>
<path id="Vector_5" d="M51.3655 8.31015C50.8286 8.31709 50.296 8.21387 49.8005 8.00686C49.3051 7.79985 48.8573 7.49345 48.485 7.10659C48.0984 6.73318 47.7922 6.28469 47.5852 5.78865C47.3783 5.29262 47.2749 4.75951 47.2814 4.22207C47.2761 3.68182 47.38 3.14608 47.5868 2.64696C47.7936 2.14785 48.0991 1.69564 48.485 1.31748C48.8509 0.918168 49.296 0.599541 49.792 0.381948C50.288 0.164354 50.8239 0.0525753 51.3655 0.0537485C51.9141 0.0472046 52.458 0.154734 52.9629 0.369516C53.4677 0.584298 53.9224 0.901647 54.2982 1.30144C54.684 1.6796 54.9895 2.1318 55.1963 2.63091C55.4031 3.13003 55.507 3.66578 55.5017 4.20602C55.5085 4.7435 55.4052 5.27667 55.1982 5.77274C54.9912 6.26881 54.6849 6.71728 54.2982 7.09054C53.9181 7.48274 53.4619 7.79321 52.9577 8.00292C52.4534 8.21264 51.9116 8.31718 51.3655 8.31015Z" fill="#62BC9E"/>
<path id="Vector_6" d="M90.1 32.5739C87.6388 32.5707 85.2794 31.5916 83.5391 29.8513C81.7988 28.111 80.8197 25.7516 80.8165 23.2905V10.5047H87.0951V23.2905C87.0951 24.0885 87.4121 24.8538 87.9764 25.4181C88.5406 25.9823 89.306 26.2993 90.104 26.2993C90.902 26.2993 91.6673 25.9823 92.2316 25.4181C92.7959 24.8538 93.1129 24.0885 93.1129 23.2905V10.5047H99.3914V23.2905C99.3893 25.7533 98.4094 28.1146 96.6672 29.8553C94.9249 31.5961 92.5628 32.5739 90.1 32.5739Z" fill="white"/>
<path id="Vector_7" d="M125.28 10.1958C123.014 10.1962 120.828 11.0301 119.138 12.5387C117.802 11.3503 116.152 10.5736 114.385 10.3025C112.618 10.0313 110.81 10.2773 109.18 11.0106C107.549 11.7439 106.166 12.9332 105.197 14.4352C104.227 15.9372 103.713 17.6875 103.716 19.4752V32.261H109.991V19.4752C109.991 18.6772 110.308 17.9119 110.872 17.3476C111.436 16.7833 112.202 16.4663 113 16.4663C113.798 16.4663 114.563 16.7833 115.127 17.3476C115.691 17.9119 116.008 18.6772 116.008 19.4752V32.261H122.275V19.4752C122.275 18.6772 122.592 17.9119 123.156 17.3476C123.721 16.7833 124.486 16.4663 125.284 16.4663C126.082 16.4663 126.847 16.7833 127.411 17.3476C127.976 17.9119 128.293 18.6772 128.293 19.4752V32.261H134.567V19.4752C134.565 17.0134 133.586 14.6532 131.844 12.9132C130.103 11.1732 127.742 10.1958 125.28 10.1958Z" fill="white"/>
</g>
</svg>
