<svg width="81" height="81" viewBox="0 0 81 81" fill="none" xmlns="http://www.w3.org/2000/svg">
<path id="Vector" d="M40.6667 80.2458C35.4419 80.313 30.2588 79.313 25.4375 77.3073C20.6162 75.3016 16.2591 72.333 12.6355 68.5849C8.87351 64.967 5.89397 60.6217 3.87989 55.8157C1.86582 51.0097 0.859715 45.8446 0.923375 40.6375C0.871799 35.4032 1.88264 30.2125 3.89523 25.3767C5.90782 20.5409 8.88068 16.1596 12.6355 12.4957C16.1963 8.62688 20.5282 5.53979 25.3547 3.43159C30.1812 1.32338 35.3961 0.240386 40.6667 0.251753C46.0052 0.18835 51.2987 1.23017 56.2115 3.31114C61.1242 5.39211 65.5491 8.46682 69.2053 12.3403C72.9602 16.0042 75.9331 20.3854 77.9457 25.2212C79.9582 30.057 80.9691 35.2477 80.9175 40.482C80.9835 45.6895 79.9784 50.8553 77.9642 55.6616C75.95 60.4678 72.9692 64.8129 69.2053 68.4294C65.5067 72.2293 61.0678 75.2373 56.1605 77.2692C51.2533 79.3011 45.9809 80.3139 40.6667 80.2458V80.2458Z" fill="#62BC9E"/>
</svg>
